<svg width="22" height="21" viewBox="0 0 22 21" fill="none" xmlns="http://www.w3.org/2000/svg">
<g clip-path="url(#clip0_121_209)">
<path d="M12.375 5.68774C12.375 6.41262 11.7594 7.00024 11 7.00024C10.2406 7.00024 9.625 6.41262 9.625 5.68774C9.625 4.96288 10.2406 4.37524 11 4.37524C11.7594 4.37524 12.375 4.96288 12.375 5.68774Z" fill="#0078D7"/>
<path d="M5.5468 7.59854C5.38671 8.05699 5.64627 8.55252 6.12655 8.70534C6.28723 8.75624 6.4492 8.80366 6.61135 8.85004C6.90803 8.935 7.32311 9.04822 7.79826 9.16162C8.33141 9.28885 8.96562 9.42264 9.60487 9.51364C9.5627 10.2947 9.46022 10.8552 9.36497 11.2271L7.42986 14.9214C7.20346 15.3536 7.387 15.8793 7.83982 16.0954C8.29263 16.3115 8.84324 16.1362 9.06965 15.7041L10.9998 12.0193L12.9299 15.7041C13.1563 16.1362 13.7069 16.3115 14.1597 16.0954C14.6125 15.8793 14.796 15.3536 14.5696 14.9214L12.6345 11.2271C12.5393 10.8552 12.4368 10.2947 12.3946 9.51364C13.0339 9.42264 13.6681 9.28885 14.2012 9.16162C14.6764 9.04822 15.0915 8.935 15.3881 8.85004C15.5492 8.80392 15.71 8.75676 15.8695 8.7064C16.3403 8.55728 16.6098 8.04847 16.4527 7.59854C16.2927 7.14013 15.7736 6.89237 15.2933 7.04509C15.1501 7.09031 15.0059 7.13248 14.8614 7.17386C14.5851 7.25296 14.1981 7.3585 13.7566 7.46386C12.8529 7.67952 11.7981 7.87523 10.9998 7.87523C10.2014 7.87523 9.14665 7.67952 8.24292 7.46386C7.80141 7.3585 7.4144 7.25296 7.13816 7.17386C6.99546 7.13299 6.85305 7.09106 6.71146 7.04677C6.23525 6.89643 5.70641 7.14146 5.5468 7.59854Z" fill="#0078D7"/>
<path fill-rule="evenodd" clip-rule="evenodd" d="M21.0832 10.5002C21.0832 15.816 16.5687 20.1252 10.9998 20.1252C5.43097 20.1252 0.916504 15.816 0.916504 10.5002C0.916504 5.1845 5.43097 0.875244 10.9998 0.875244C16.5687 0.875244 21.0832 5.1845 21.0832 10.5002ZM2.7561 10.5002C2.7561 14.8462 6.44694 18.3693 10.9998 18.3693C15.5527 18.3693 19.2436 14.8462 19.2436 10.5002C19.2436 6.1543 15.5527 2.63122 10.9998 2.63122C6.44694 2.63122 2.7561 6.1543 2.7561 10.5002Z" fill="#0078D7"/>
</g>
<defs>
<clipPath id="clip0_121_209">
<rect width="22" height="21" fill="white"/>
</clipPath>
</defs>
</svg>
