<svg width="31" height="31" viewBox="0 0 31 31" fill="none" xmlns="http://www.w3.org/2000/svg">
<rect x="0.322917" y="0.322917" width="30.3542" height="30.3542" rx="7.42708" fill="white"/>
<rect x="0.322917" y="0.322917" width="30.3542" height="30.3542" rx="7.42708" stroke="black" stroke-width="0.645833"/>
<path d="M12.9165 16.1458C12.9165 15.4607 13.1887 14.8036 13.6731 14.3191C14.1576 13.8347 14.8147 13.5625 15.4998 13.5625C16.185 13.5625 16.8421 13.8347 17.3265 14.3191C17.811 14.8036 18.0832 15.4607 18.0832 16.1458C18.0832 16.831 17.811 17.4881 17.3265 17.9725C16.8421 18.457 16.185 18.7292 15.4998 18.7292C14.8147 18.7292 14.1576 18.457 13.6731 17.9725C13.1887 17.4881 12.9165 16.831 12.9165 16.1458Z" fill="black"/>
<path d="M11.6314 5.8125H19.3683L20.7774 8.66776H25.8332V23.8958H5.1665V8.66776H10.2223L11.6314 5.8125ZM10.568 16.0439C10.568 17.3691 11.0876 18.64 12.0125 19.5771C12.9374 20.5141 14.1918 21.0406 15.4998 21.0406C16.8078 21.0406 18.0623 20.5141 18.9872 19.5771C19.9121 18.64 20.4317 17.3691 20.4317 16.0439C20.4317 14.7186 19.9121 13.4477 18.9872 12.5107C18.0623 11.5736 16.8078 11.0471 15.4998 11.0471C14.1918 11.0471 12.9374 11.5736 12.0125 12.5107C11.0876 13.4477 10.568 14.7186 10.568 16.0439Z" fill="black"/>
</svg>
