<svg width="20" height="20" viewBox="0 0 20 20" fill="none" xmlns="http://www.w3.org/2000/svg">
<path fill-rule="evenodd" clip-rule="evenodd" d="M18.75 17.5C18.75 18.19 18.19 18.75 17.5 18.75H2.5C1.81 18.75 1.25 18.19 1.25 17.5V2.5C1.25 1.81 1.81 1.25 2.5 1.25H17.5C18.19 1.25 18.75 1.81 18.75 2.5V17.5ZM17.5 0H2.5C1.11937 0 0 1.11937 0 2.5V17.5C0 18.8806 1.11937 20 2.5 20H17.5C18.8806 20 20 18.8806 20 17.5V2.5C20 1.11937 18.8806 0 17.5 0ZM12.5 12.125C11.6713 12.125 11 11.4531 11 10.625C11 9.79688 11.6713 9.125 12.5 9.125C13.3287 9.125 14 9.79688 14 10.625C14 11.4531 13.3287 12.125 12.5 12.125ZM16.25 10H14.9113C14.6331 8.92313 13.6637 8.125 12.5 8.125C11.3363 8.125 10.3675 8.92313 10.0887 10H3.75C3.405 10 3.125 10.28 3.125 10.625C3.125 10.9706 3.405 11.25 3.75 11.25H10.0887C10.3669 12.3269 11.3363 13.125 12.5 13.125C13.6637 13.125 14.6331 12.3269 14.9113 11.25H16.25C16.595 11.25 16.875 10.9706 16.875 10.625C16.875 10.28 16.595 10 16.25 10ZM6.875 7.125C6.04625 7.125 5.375 6.45312 5.375 5.625C5.375 4.79688 6.04625 4.12563 6.875 4.12563C7.70375 4.12563 8.375 4.79688 8.375 5.625C8.375 6.45312 7.70375 7.125 6.875 7.125ZM16.25 5H9.28625C9.00813 3.92313 8.03875 3.125 6.875 3.125C5.71125 3.125 4.74187 3.92313 4.46375 5H3.75C3.405 5 3.125 5.28 3.125 5.625C3.125 5.97062 3.405 6.25 3.75 6.25H4.46375C4.74187 7.32688 5.71125 8.125 6.875 8.125C8.03875 8.125 9.00813 7.32688 9.28625 6.25H16.25C16.595 6.25 16.875 5.97062 16.875 5.625C16.875 5.28 16.595 5 16.25 5ZM6.875 17.125C6.04625 17.125 5.375 16.4531 5.375 15.625C5.375 14.7969 6.04625 14.1256 6.875 14.1256C7.70375 14.1256 8.375 14.7969 8.375 15.625C8.375 16.4531 7.70375 17.125 6.875 17.125ZM16.25 15H9.28625C9.00813 13.9237 8.03875 13.125 6.875 13.125C5.71125 13.125 4.74187 13.9237 4.46375 15H3.75C3.405 15 3.125 15.2794 3.125 15.625C3.125 15.9706 3.405 16.25 3.75 16.25H4.46375C4.74187 17.3269 5.71125 18.125 6.875 18.125C8.03875 18.125 9.00813 17.3269 9.28625 16.25H16.25C16.595 16.25 16.875 15.9706 16.875 15.625C16.875 15.2794 16.595 15 16.25 15Z" fill="#0078D7" fill-opacity="0.99"/>
</svg>
