<svg width="35" height="32" viewBox="0 0 35 32" fill="none" xmlns="http://www.w3.org/2000/svg">
<g clip-path="url(#clip0_96_54)">
<path d="M14.4893 3.40021H20.0098C20.2487 3.4003 20.4198 3.5511 20.4531 3.73322L20.9697 7.06036L20.9922 7.2049L21.1299 7.25665C21.9552 7.56319 22.6989 7.97197 23.4033 8.46075L23.5098 8.53497L23.6318 8.49103L27.0518 7.23517C27.2879 7.16688 27.5155 7.24589 27.6152 7.4129L27.6182 7.41876L30.374 11.7713H30.375C30.465 11.9206 30.4257 12.1303 30.2725 12.2391L27.3545 14.3123L27.2246 14.4051L27.2529 14.5613C27.3214 14.9364 27.3496 15.3406 27.3496 15.7498C27.3496 16.1717 27.3213 16.5671 27.2656 16.9481L27.2441 17.0984L27.3672 17.1873L30.2568 19.2606L30.2627 19.2654C30.423 19.3733 30.4663 19.5529 30.3604 19.7303L27.6035 24.0818L27.6006 24.0877C27.4969 24.2612 27.2677 24.341 27.0459 24.2674H27.0449L23.6172 23.0096L23.4941 22.9647L23.3867 23.0408C22.6992 23.5276 21.9418 23.937 21.1152 24.244L20.9785 24.2947L20.9561 24.4402L20.4385 27.7733L20.4375 27.7781C20.4142 27.9486 20.2517 28.1003 20.0098 28.1004H14.4893C14.2622 28.1003 14.0931 27.9597 14.0449 27.7645L13.5293 24.4402L13.5068 24.2947L13.3691 24.244L13.0635 24.1238C12.3586 23.8334 11.7121 23.4666 11.0957 23.0389L10.9893 22.9656L10.8672 23.0096L7.44629 24.2645C7.21046 24.3324 6.98345 24.2545 6.88379 24.0877L6.88086 24.0818L4.12305 19.7274C4.04551 19.5968 4.06607 19.421 4.1748 19.3065L4.22656 19.2615L7.14453 17.1873L7.27441 17.0955L7.24609 16.9393C7.17764 16.5643 7.14941 16.1462 7.14941 15.7498C7.14945 15.3644 7.20384 14.948 7.27441 14.5613L7.30371 14.4051L7.17383 14.3123L4.25586 12.2391L4.24512 12.2322L4.19043 12.1893C4.07537 12.0818 4.0581 11.9217 4.15039 11.7742L4.14941 11.7733L6.89551 7.41779L6.89844 7.4129C7.00207 7.23944 7.23136 7.15879 7.45312 7.23224L10.8818 8.49103L11.0029 8.53497L11.1094 8.46173C11.8005 7.98523 12.559 7.563 13.3838 7.25665L13.5205 7.2049L13.5439 7.06036L14.0596 3.73322C14.0939 3.54508 14.2569 3.40033 14.4893 3.40021ZM17.25 10.7752C14.2877 10.7752 11.8245 12.9923 11.8242 15.7498C11.8242 18.5076 14.2876 20.7254 17.25 20.7254C20.2122 20.7252 22.6748 18.5074 22.6748 15.7498C22.6746 12.9924 20.2121 10.7754 17.25 10.7752Z" fill="#0078D7" stroke="black" stroke-width="0.5"/>
</g>
<defs>
<clipPath id="clip0_96_54">
<rect width="34.5" height="31.5" fill="white"/>
</clipPath>
</defs>
</svg>
