<svg width="35" height="32" viewBox="0 0 35 32" fill="none" xmlns="http://www.w3.org/2000/svg">
<path d="M19.9727 3.90015L20.4756 7.13745L20.543 7.57202L20.9561 7.72534C21.7359 8.01501 22.4423 8.40287 23.1182 8.87183L23.4385 9.09448L23.8037 8.95972L27.1992 7.71362C27.2039 7.71265 27.2086 7.71301 27.2129 7.71265L29.8711 11.9089L27.0645 13.905L26.6758 14.1814L26.7607 14.6511C26.8224 14.9891 26.8496 15.362 26.8496 15.7498C26.8496 16.1492 26.8234 16.5203 26.7715 16.8757L26.7051 17.3269L27.0762 17.5935L29.8574 19.5886L27.1963 23.7898L23.79 22.5408L23.4199 22.405L23.0977 22.6326C22.4437 23.0956 21.725 23.4841 20.9414 23.7751L20.5293 23.9285L20.4619 24.363L19.959 27.6003H14.5264L14.0234 24.363L13.9561 23.9285L13.543 23.7751C12.7631 23.4855 12.0567 23.0976 11.3809 22.6287L11.0605 22.406L10.6953 22.5408L7.30176 23.7849C7.29598 23.7862 7.29045 23.7865 7.28516 23.7869L4.62695 19.5896L7.43457 17.5955L7.82324 17.3191L7.73828 16.8494C7.67666 16.5118 7.64941 16.1252 7.64941 15.7498C7.64945 15.4071 7.69856 15.0239 7.7666 14.6511L7.85254 14.1814L7.46289 13.905L4.65625 11.9099L7.30176 7.70972L10.709 8.95972L11.0742 9.09351L11.3936 8.8728C12.0581 8.41464 12.7795 8.01434 13.5576 7.72534L13.9697 7.57202L14.0371 7.13745L14.54 3.90015H19.9727ZM17.25 10.2751C14.0553 10.2751 11.3245 12.6742 11.3242 15.7498C11.3242 18.8255 14.0552 21.2253 17.25 21.2253C20.4446 21.2251 23.1748 18.8253 23.1748 15.7498C23.1746 12.6744 20.4445 10.2754 17.25 10.2751Z" fill="#252525" fill-opacity="0.53" stroke="#0078D7" stroke-width="1.5"/>
</svg>
