<svg width="30" height="31" viewBox="0 0 30 31" fill="none" xmlns="http://www.w3.org/2000/svg">
<g clip-path="url(#clip0_125_255)">
<path d="M24.375 15.5H20.625C20.1279 15.5005 19.6512 15.7048 19.2997 16.068C18.9482 16.4313 18.7505 16.9238 18.75 17.4375V29.0625H20.625V24.2188H24.375V29.0625H26.25V17.4375C26.2495 16.9238 26.0518 16.4313 25.7003 16.068C25.3488 15.7048 24.8721 15.5005 24.375 15.5ZM20.625 22.2812V17.4375H24.375V22.2812H20.625Z" fill="#F2F5F9"/>
<path d="M15 26.1562C13.2834 26.1568 11.5938 25.714 10.0849 24.8681C8.57606 24.0221 7.29575 22.7999 6.36037 21.3125H11.25V19.375H3.75V27.125H5.625V23.5551C6.77045 24.9751 8.2039 26.1177 9.82393 26.902C11.444 27.6863 13.211 28.0931 15 28.0938V26.1562Z" fill="#F2F5F9"/>
<path d="M18.75 9.6875H23.6395C22.4273 7.7621 20.6454 6.29311 18.5593 5.49955C16.4733 4.70599 14.195 4.63035 12.0639 5.28393C9.93292 5.9375 8.06339 7.28527 6.73409 9.1263C5.40479 10.9673 4.68692 13.203 4.6875 15.5H2.8125C2.81343 12.9107 3.58641 10.3846 5.02625 8.26546C6.46609 6.14632 8.50285 4.53708 10.8593 3.65675C13.2158 2.77642 15.7776 2.66776 18.196 3.34555C20.6144 4.02335 22.7719 5.45468 24.375 7.44475V3.875H26.25V11.625H18.75V9.6875Z" fill="#F2F5F9"/>
</g>
<defs>
<clipPath id="clip0_125_255">
<rect width="30" height="31" fill="white"/>
</clipPath>
</defs>
</svg>
